<mxfile host="app.diagrams.net" modified="2022-12-10T07:54:59.704Z" agent="5.0 (Windows NT 10.0; WOW64) AppleWebKit/537.36 (KHTML, like Gecko) Chrome/83.0.4103.97 Safari/537.36" version="20.6.2" etag="39xx8xYa65KwHKzPSBXd" type="github">
  <diagram id="za75_kqBKISUpyBBY-LT" name="第 1 页">
    <mxGraphModel dx="1635" dy="1981" grid="1" gridSize="10" guides="1" tooltips="1" connect="1" arrows="1" fold="1" page="1" pageScale="1" pageWidth="827" pageHeight="1169" math="0" shadow="0">
      <root>
        <mxCell id="0" />
        <mxCell id="1" parent="0" />
        <mxCell id="azP4nNUvSWboZ6aOihku-4" value="&lt;font style=&quot;font-size: 10px;&quot;&gt;扣采购库存（通用）&lt;/font&gt;" style="rounded=0;whiteSpace=wrap;html=1;fontSize=10;" vertex="1" parent="1">
          <mxGeometry x="423" y="324" width="148" height="40" as="geometry" />
        </mxCell>
        <mxCell id="azP4nNUvSWboZ6aOihku-5" value="扣申请库存（通用）" style="rounded=0;whiteSpace=wrap;html=1;" vertex="1" parent="1">
          <mxGeometry x="585" y="324" width="150" height="40" as="geometry" />
        </mxCell>
        <mxCell id="azP4nNUvSWboZ6aOihku-6" style="rounded=0;orthogonalLoop=1;jettySize=auto;html=1;entryX=0.537;entryY=-0.095;entryDx=0;entryDy=0;entryPerimeter=0;fontSize=10;" edge="1" parent="1" source="azP4nNUvSWboZ6aOihku-8" target="azP4nNUvSWboZ6aOihku-12">
          <mxGeometry relative="1" as="geometry" />
        </mxCell>
        <mxCell id="azP4nNUvSWboZ6aOihku-7" style="edgeStyle=none;rounded=0;orthogonalLoop=1;jettySize=auto;html=1;exitX=1;exitY=1;exitDx=0;exitDy=0;entryX=0.546;entryY=0.053;entryDx=0;entryDy=0;entryPerimeter=0;fontSize=10;" edge="1" parent="1" source="azP4nNUvSWboZ6aOihku-8" target="azP4nNUvSWboZ6aOihku-15">
          <mxGeometry relative="1" as="geometry" />
        </mxCell>
        <mxCell id="azP4nNUvSWboZ6aOihku-8" value="扣库" style="ellipse;whiteSpace=wrap;html=1;fontSize=10;" vertex="1" parent="1">
          <mxGeometry x="778" y="-30" width="120" height="80" as="geometry" />
        </mxCell>
        <mxCell id="azP4nNUvSWboZ6aOihku-57" style="edgeStyle=none;rounded=0;orthogonalLoop=1;jettySize=auto;html=1;exitX=0.5;exitY=1;exitDx=0;exitDy=0;entryX=0.375;entryY=-0.007;entryDx=0;entryDy=0;entryPerimeter=0;" edge="1" parent="1" source="azP4nNUvSWboZ6aOihku-12" target="azP4nNUvSWboZ6aOihku-56">
          <mxGeometry relative="1" as="geometry" />
        </mxCell>
        <mxCell id="azP4nNUvSWboZ6aOihku-12" value="一级代理商" style="rounded=0;whiteSpace=wrap;html=1;fontSize=10;" vertex="1" parent="1">
          <mxGeometry x="668" y="90" width="120" height="30" as="geometry" />
        </mxCell>
        <mxCell id="azP4nNUvSWboZ6aOihku-58" style="edgeStyle=none;rounded=0;orthogonalLoop=1;jettySize=auto;html=1;exitX=0.5;exitY=1;exitDx=0;exitDy=0;entryX=0.674;entryY=0;entryDx=0;entryDy=0;entryPerimeter=0;" edge="1" parent="1" source="azP4nNUvSWboZ6aOihku-15" target="azP4nNUvSWboZ6aOihku-56">
          <mxGeometry relative="1" as="geometry" />
        </mxCell>
        <mxCell id="azP4nNUvSWboZ6aOihku-15" value="二级代理商" style="rounded=0;whiteSpace=wrap;html=1;fontSize=10;" vertex="1" parent="1">
          <mxGeometry x="898" y="90" width="120" height="30" as="geometry" />
        </mxCell>
        <mxCell id="azP4nNUvSWboZ6aOihku-51" style="edgeStyle=none;rounded=0;orthogonalLoop=1;jettySize=auto;html=1;exitX=0.5;exitY=1;exitDx=0;exitDy=0;entryX=0.293;entryY=0;entryDx=0;entryDy=0;entryPerimeter=0;" edge="1" parent="1" source="azP4nNUvSWboZ6aOihku-20" target="azP4nNUvSWboZ6aOihku-47">
          <mxGeometry relative="1" as="geometry" />
        </mxCell>
        <mxCell id="azP4nNUvSWboZ6aOihku-20" value="授权扣库通用" style="rounded=0;whiteSpace=wrap;html=1;fontSize=10;" vertex="1" parent="1">
          <mxGeometry x="585" y="173" width="138" height="40" as="geometry" />
        </mxCell>
        <mxCell id="azP4nNUvSWboZ6aOihku-54" style="edgeStyle=none;rounded=0;orthogonalLoop=1;jettySize=auto;html=1;exitX=0.5;exitY=1;exitDx=0;exitDy=0;entryX=0.89;entryY=-0.019;entryDx=0;entryDy=0;entryPerimeter=0;" edge="1" parent="1" source="azP4nNUvSWboZ6aOihku-25" target="azP4nNUvSWboZ6aOihku-47">
          <mxGeometry relative="1" as="geometry" />
        </mxCell>
        <mxCell id="azP4nNUvSWboZ6aOihku-25" value="置换扣库通用" style="rounded=0;whiteSpace=wrap;html=1;fontSize=10;" vertex="1" parent="1">
          <mxGeometry x="1081" y="173" width="138" height="40" as="geometry" />
        </mxCell>
        <mxCell id="azP4nNUvSWboZ6aOihku-50" style="edgeStyle=none;rounded=0;orthogonalLoop=1;jettySize=auto;html=1;entryX=0.104;entryY=0.002;entryDx=0;entryDy=0;entryPerimeter=0;" edge="1" parent="1" source="azP4nNUvSWboZ6aOihku-28" target="azP4nNUvSWboZ6aOihku-47">
          <mxGeometry relative="1" as="geometry" />
        </mxCell>
        <mxCell id="azP4nNUvSWboZ6aOihku-28" value="申请扣库" style="rounded=0;whiteSpace=wrap;html=1;fontSize=10;" vertex="1" parent="1">
          <mxGeometry x="425" y="173" width="138" height="40" as="geometry" />
        </mxCell>
        <mxCell id="azP4nNUvSWboZ6aOihku-52" style="edgeStyle=none;rounded=0;orthogonalLoop=1;jettySize=auto;html=1;exitX=0.5;exitY=1;exitDx=0;exitDy=0;entryX=0.488;entryY=-0.002;entryDx=0;entryDy=0;entryPerimeter=0;" edge="1" parent="1" source="azP4nNUvSWboZ6aOihku-42" target="azP4nNUvSWboZ6aOihku-47">
          <mxGeometry relative="1" as="geometry" />
        </mxCell>
        <mxCell id="azP4nNUvSWboZ6aOihku-42" value="授权扣库项目" style="rounded=0;whiteSpace=wrap;html=1;fontSize=10;" vertex="1" parent="1">
          <mxGeometry x="745" y="173" width="138" height="40" as="geometry" />
        </mxCell>
        <mxCell id="azP4nNUvSWboZ6aOihku-53" style="edgeStyle=none;rounded=0;orthogonalLoop=1;jettySize=auto;html=1;exitX=0.5;exitY=1;exitDx=0;exitDy=0;entryX=0.699;entryY=0;entryDx=0;entryDy=0;entryPerimeter=0;" edge="1" parent="1" source="azP4nNUvSWboZ6aOihku-43" target="azP4nNUvSWboZ6aOihku-47">
          <mxGeometry relative="1" as="geometry" />
        </mxCell>
        <mxCell id="azP4nNUvSWboZ6aOihku-43" value="置换扣库项目" style="rounded=0;whiteSpace=wrap;html=1;fontSize=10;" vertex="1" parent="1">
          <mxGeometry x="919" y="173" width="138" height="40" as="geometry" />
        </mxCell>
        <mxCell id="azP4nNUvSWboZ6aOihku-44" value="扣采购库存（项目）" style="rounded=0;whiteSpace=wrap;html=1;" vertex="1" parent="1">
          <mxGeometry x="1081" y="324" width="150" height="40" as="geometry" />
        </mxCell>
        <mxCell id="azP4nNUvSWboZ6aOihku-45" value="扣置换库存（通用）" style="rounded=0;whiteSpace=wrap;html=1;" vertex="1" parent="1">
          <mxGeometry x="921" y="324" width="150" height="40" as="geometry" />
        </mxCell>
        <mxCell id="azP4nNUvSWboZ6aOihku-46" value="扣置换库存（项目）" style="rounded=0;whiteSpace=wrap;html=1;" vertex="1" parent="1">
          <mxGeometry x="760" y="324" width="150" height="40" as="geometry" />
        </mxCell>
        <mxCell id="azP4nNUvSWboZ6aOihku-47" value="" style="swimlane;startSize=0;" vertex="1" parent="1">
          <mxGeometry x="411" y="260" width="830" height="150" as="geometry" />
        </mxCell>
        <mxCell id="azP4nNUvSWboZ6aOihku-48" value="构建代理商+产品+库存类型容器数据" style="text;html=1;strokeColor=none;fillColor=none;align=center;verticalAlign=middle;whiteSpace=wrap;rounded=0;" vertex="1" parent="azP4nNUvSWboZ6aOihku-47">
          <mxGeometry x="12" y="20" width="230" height="20" as="geometry" />
        </mxCell>
        <mxCell id="azP4nNUvSWboZ6aOihku-55" value="各扣库自行去容器中循环扣除直到扣减完毕或扣减库存不足异常" style="text;html=1;strokeColor=none;fillColor=none;align=center;verticalAlign=middle;whiteSpace=wrap;rounded=0;" vertex="1" parent="1">
          <mxGeometry x="180" y="213" width="190" height="50" as="geometry" />
        </mxCell>
        <mxCell id="azP4nNUvSWboZ6aOihku-56" value="" style="swimlane;startSize=0;" vertex="1" parent="1">
          <mxGeometry x="411" y="150" width="829" height="88" as="geometry" />
        </mxCell>
        <mxCell id="azP4nNUvSWboZ6aOihku-59" value="获取扣减策略" style="text;html=1;strokeColor=none;fillColor=none;align=center;verticalAlign=middle;whiteSpace=wrap;rounded=0;" vertex="1" parent="1">
          <mxGeometry x="520" y="120" width="90" height="20" as="geometry" />
        </mxCell>
      </root>
    </mxGraphModel>
  </diagram>
</mxfile>
